<svg width="512" height="448" viewBox="0 0 512 448" fill="none" xmlns="http://www.w3.org/2000/svg">
<path d="M448 0H361.9L360.9 1L233.9 128H326L327 127L453.8 0.299999C451.9 0.0999992 450 0 448 0ZM512 128V64C512 48.9 506.7 34.9 498 24L394 128H512ZM294.1 0H202L201 1L73.9 128H166L167 127L294 0H294.1ZM64 0C28.7 0 0 28.7 0 64V128H6.1L7.1 127L134.1 0H64ZM512 160H0V384C0 419.3 28.7 448 64 448H448C483.3 448 512 419.3 512 384V160Z" fill="#3E5879"/>
<path d="M349.333 234.036C353 234.036 356 237.041 356 240.714V374.286C356 377.959 353 380.964 349.333 380.964H162.667C159 380.964 156 377.959 156 374.286V240.714C156 237.041 159 234.036 162.667 234.036H349.333ZM162.667 214C147.958 214 136 225.98 136 240.714V374.286C136 389.02 147.958 401 162.667 401H349.333C364.042 401 376 389.02 376 374.286V240.714C376 225.98 364.042 214 349.333 214H162.667ZM219.333 287.464C225.25 287.464 230.583 290.01 234.25 294.143C237.917 298.275 244.25 298.609 248.375 294.936C252.5 291.263 252.833 284.918 249.167 280.786C241.875 272.604 231.208 267.429 219.375 267.429C197.292 267.429 179.375 285.377 179.375 307.5C179.375 329.623 197.292 347.571 219.375 347.571C231.208 347.571 241.875 342.396 249.167 334.214C252.833 330.082 252.5 323.779 248.375 320.064C244.25 316.349 237.958 316.725 234.25 320.857C230.583 324.99 225.25 327.536 219.333 327.536C208.292 327.536 199.333 318.561 199.333 307.5C199.333 296.439 208.292 287.464 219.333 287.464ZM279.333 307.5C279.333 296.439 288.292 287.464 299.333 287.464C305.25 287.464 310.583 290.01 314.25 294.143C317.917 298.275 324.25 298.609 328.375 294.936C332.5 291.263 332.833 284.918 329.167 280.786C321.875 272.604 311.208 267.429 299.375 267.429C277.292 267.429 259.375 285.377 259.375 307.5C259.375 329.623 277.292 347.571 299.375 347.571C311.208 347.571 321.875 342.396 329.167 334.214C332.833 330.082 332.5 323.779 328.375 320.064C324.25 316.349 317.958 316.725 314.25 320.857C310.583 324.99 305.25 327.536 299.333 327.536C288.292 327.536 279.333 318.561 279.333 307.5Z" fill="#D8C4B6"/>
</svg>
